<svg xmlns="http://www.w3.org/2000/svg" width="32" height="32" viewBox="0 0 16 16"><!-- Icon from Codicons by Microsoft Corporation - https://github.com/microsoft/vscode-codicons/blob/main/LICENSE --><path fill="#ffffff" d="M9.853 4.853L7.707 6.999l2.146 2.146a.5.5 0 0 1-.707.707L7 7.706L4.854 9.852a.5.5 0 0 1-.707-.707l2.146-2.146l-2.146-2.146a.5.5 0 0 1 .707-.707L7 6.292l2.146-2.146a.5.5 0 0 1 .707.707M14 3.268V11a3 3 0 0 1-3 3H3.268c.346.598.992 1 1.732 1h6a4 4 0 0 0 4-4V5c0-.74-.402-1.387-1-1.732M11 13H3a2 2 0 0 1-2-2V3a2 2 0 0 1 2-2h8a2 2 0 0 1 2 2v8a2 2 0 0 1-2 2m-8-1h8a1 1 0 0 0 1-1V3a1 1 0 0 0-1-1H3a1 1 0 0 0-1 1v8a1 1 0 0 0 1 1"/></svg>